<svg width="120" height="92" viewBox="0 0 120 92" fill="none" xmlns="http://www.w3.org/2000/svg">
<g filter="url(#filter0_d_1_13)">
<path d="M45.4312 0V53.5293H34.3479V0H45.4312ZM62.0376 0V8.63971H18.001V0H62.0376Z" fill="#007D94"/>
<path d="M80.8796 52.0221C80.8796 51.0662 80.7313 50.2083 80.4348 49.4485C80.1629 48.6642 79.644 47.9534 78.8779 47.3162C78.1118 46.6544 77.0369 46.0049 75.653 45.3677C74.2691 44.7304 72.4775 44.0686 70.2782 43.3824C67.8317 42.598 65.5088 41.7157 63.3094 40.7353C61.1347 39.7549 59.2072 38.6152 57.5268 37.3162C55.8711 35.9927 54.5614 34.4608 53.5976 32.7206C52.6586 30.9804 52.189 28.9583 52.189 26.6544C52.189 24.424 52.6833 22.402 53.6717 20.5882C54.6602 18.75 56.0441 17.1814 57.8233 15.8824C59.6026 14.5588 61.7031 13.5417 64.1249 12.8309C66.5714 12.1201 69.2526 11.7647 72.1686 11.7647C76.1472 11.7647 79.6193 12.4755 82.5847 13.8971C85.5501 15.3186 87.8483 17.2672 89.4793 19.7427C91.135 22.2181 91.9629 25.049 91.9629 28.2353H80.9166C80.9166 26.6667 80.583 25.2941 79.9158 24.1177C79.2733 22.9167 78.2848 21.973 76.9504 21.2868C75.6406 20.6005 73.985 20.2574 71.9833 20.2574C70.0558 20.2574 68.4495 20.5515 67.1645 21.1397C65.8794 21.7034 64.9157 22.4755 64.2732 23.4559C63.6306 24.4118 63.3094 25.4902 63.3094 26.6912C63.3094 27.598 63.5318 28.4191 63.9766 29.1544C64.4461 29.8897 65.1381 30.576 66.0524 31.2132C66.9668 31.8505 68.0912 32.451 69.4256 33.0147C70.76 33.5784 72.3045 34.1299 74.0591 34.6691C76.9998 35.5515 79.5822 36.5441 81.8063 37.6471C84.0551 38.75 85.9332 39.9877 87.4406 41.3603C88.948 42.7328 90.0848 44.2892 90.8508 46.0294C91.6169 47.7696 91.9999 49.7427 91.9999 51.9485C91.9999 54.277 91.5428 56.3603 90.6284 58.1985C89.7141 60.0368 88.392 61.5931 86.6622 62.8677C84.9323 64.1422 82.8689 65.1103 80.4718 65.7721C78.0748 66.4338 75.3935 66.7647 72.4281 66.7647C69.7592 66.7647 67.1274 66.4216 64.5326 65.7353C61.9379 65.0245 59.5779 63.9583 57.4527 62.5368C55.3522 61.1152 53.6717 59.3015 52.4114 57.0956C51.1511 54.8897 50.521 52.2794 50.521 49.2647H61.6784C61.6784 50.9314 61.9379 52.3407 62.4568 53.4927C62.9758 54.6446 63.7048 55.576 64.6438 56.2868C65.6076 56.9976 66.7444 57.5123 68.0541 57.8309C69.3885 58.1495 70.8465 58.3088 72.4281 58.3088C74.3556 58.3088 75.9372 58.0392 77.1728 57.5C78.4331 56.9608 79.3598 56.2132 79.9529 55.2574C80.5707 54.3015 80.8796 53.223 80.8796 52.0221Z" fill="#007D94"/>
<path d="M12.4049 78.6539H15.2349C15.1781 79.5796 14.9226 80.4014 14.4682 81.1193C14.0202 81.8372 13.3924 82.3976 12.5847 82.8007C11.7833 83.2037 10.8179 83.4052 9.68844 83.4052C8.80504 83.4052 8.01314 83.2541 7.31274 82.9518C6.61233 82.6432 6.01288 82.2024 5.51439 81.6294C5.02222 81.0563 4.64677 80.3636 4.38806 79.5513C4.12935 78.7389 4 77.829 4 76.8214V75.8674C4 74.8598 4.13251 73.9499 4.39753 73.1375C4.66886 72.3189 5.05377 71.623 5.55225 71.05C6.05705 70.4769 6.65965 70.0361 7.36006 69.7276C8.06047 69.419 8.8429 69.2647 9.70737 69.2647C10.8558 69.2647 11.8244 69.4725 12.6131 69.8881C13.4082 70.3038 14.0234 70.8768 14.4588 71.6073C14.9005 72.3378 15.1655 73.169 15.2538 74.101H12.4143C12.3828 73.5468 12.2724 73.0777 12.0831 72.6936C11.8938 72.3031 11.6067 72.0103 11.2218 71.8151C10.8432 71.6136 10.3384 71.5128 9.70737 71.5128C9.23412 71.5128 8.82082 71.601 8.46746 71.7773C8.1141 71.9536 7.81753 72.2213 7.57775 72.5802C7.33797 72.9392 7.15814 73.3926 7.03825 73.9404C6.92467 74.482 6.86788 75.118 6.86788 75.8485V76.8214C6.86788 77.533 6.92152 78.1596 7.02879 78.7011C7.13606 79.2364 7.30012 79.6898 7.52096 80.0614C7.74812 80.4266 8.03838 80.7037 8.39174 80.8926C8.75141 81.0752 9.18364 81.1665 9.68844 81.1665C10.2816 81.1665 10.7706 81.0721 11.1555 80.8831C11.5404 80.6942 11.8338 80.414 12.0357 80.0425C12.244 79.6709 12.367 79.2081 12.4049 78.6539Z" fill="#034072"/>
<path d="M28.4196 76.0185V76.6703C28.4196 77.7156 28.2776 78.6539 27.9937 79.4852C27.7097 80.3164 27.309 81.0248 26.7916 81.6105C26.2742 82.1898 25.6558 82.6338 24.9365 82.9423C24.2235 83.2509 23.4316 83.4052 22.5608 83.4052C21.6963 83.4052 20.9044 83.2509 20.1851 82.9423C19.472 82.6338 18.8537 82.1898 18.3299 81.6105C17.8062 81.0248 17.3992 80.3164 17.109 79.4852C16.825 78.6539 16.683 77.7156 16.683 76.6703V76.0185C16.683 74.9669 16.825 74.0286 17.109 73.2036C17.3929 72.3724 17.7936 71.664 18.311 71.0783C18.8347 70.4927 19.4531 70.0456 20.1661 69.737C20.8855 69.4284 21.6774 69.2742 22.5419 69.2742C23.4126 69.2742 24.2045 69.4284 24.9176 69.737C25.6369 70.0456 26.2553 70.4927 26.7727 71.0783C27.2964 71.664 27.7003 72.3724 27.9842 73.2036C28.2745 74.0286 28.4196 74.9669 28.4196 76.0185ZM25.5517 76.6703V75.9996C25.5517 75.2691 25.4855 74.6268 25.3529 74.0727C25.2204 73.5185 25.0248 73.0525 24.7661 72.6747C24.5074 72.2968 24.1919 72.0135 23.8196 71.8245C23.4473 71.6293 23.0214 71.5317 22.5419 71.5317C22.0623 71.5317 21.6364 71.6293 21.2641 71.8245C20.8981 72.0135 20.5858 72.2968 20.3271 72.6747C20.0747 73.0525 19.8822 73.5185 19.7497 74.0727C19.6172 74.6268 19.5509 75.2691 19.5509 75.9996V76.6703C19.5509 77.3945 19.6172 78.0368 19.7497 78.5972C19.8822 79.1514 20.0778 79.6205 20.3365 80.0047C20.5952 80.3825 20.9107 80.669 21.283 80.8643C21.6553 81.0595 22.0812 81.1571 22.5608 81.1571C23.0403 81.1571 23.4663 81.0595 23.8386 80.8643C24.2108 80.669 24.5232 80.3825 24.7756 80.0047C25.028 79.6205 25.2204 79.1514 25.3529 78.5972C25.4855 78.0368 25.5517 77.3945 25.5517 76.6703Z" fill="#034072"/>
<path d="M30.464 69.4631H35.6035C36.6573 69.4631 37.5627 69.6205 38.3199 69.9354C39.0834 70.2502 39.6703 70.7162 40.0804 71.3334C40.4906 71.9505 40.6956 72.7093 40.6956 73.6098C40.6956 74.3466 40.5694 74.9795 40.317 75.5084C40.0709 76.0311 39.7207 76.4688 39.2664 76.8214C38.8184 77.1678 38.2915 77.4448 37.6858 77.6527L36.7866 78.1249H32.3192L32.3002 75.9146H35.6224C36.1209 75.9146 36.5342 75.8264 36.8623 75.6501C37.1904 75.4738 37.4365 75.2282 37.6006 74.9133C37.771 74.5985 37.8562 74.2332 37.8562 73.8176C37.8562 73.3768 37.7741 72.9958 37.6101 72.6747C37.446 72.3535 37.1968 72.1079 36.8623 71.9379C36.5279 71.7679 36.1083 71.6829 35.6035 71.6829H33.3035V83.2163H30.464V69.4631ZM38.1685 83.2163L35.0261 77.0859L38.0265 77.067L41.2067 83.084V83.2163H38.1685Z" fill="#034072"/>
<path d="M42.882 69.4631H48.0215C49.0753 69.4631 49.9808 69.6205 50.738 69.9354C51.5015 70.2502 52.0883 70.7162 52.4984 71.3334C52.9086 71.9505 53.1137 72.7093 53.1137 73.6098C53.1137 74.3466 52.9875 74.9795 52.7351 75.5084C52.489 76.0311 52.1388 76.4688 51.6845 76.8214C51.2364 77.1678 50.7096 77.4448 50.1038 77.6527L49.2046 78.1249H44.7372L44.7182 75.9146H48.0404C48.5389 75.9146 48.9522 75.8264 49.2804 75.6501C49.6085 75.4738 49.8546 75.2282 50.0186 74.9133C50.189 74.5985 50.2742 74.2332 50.2742 73.8176C50.2742 73.3768 50.1921 72.9958 50.0281 72.6747C49.864 72.3535 49.6148 72.1079 49.2804 71.9379C48.9459 71.7679 48.5263 71.6829 48.0215 71.6829H45.7215V83.2163H42.882V69.4631ZM50.5865 83.2163L47.4442 77.0859L50.4445 77.067L53.6248 83.084V83.2163H50.5865Z" fill="#034072"/>
<path d="M64.5473 81.0059V83.2163H57.212V81.0059H64.5473ZM58.1396 69.4631V83.2163H55.3001V69.4631H58.1396ZM63.5914 75.0645V77.2181H57.212V75.0645H63.5914ZM64.5379 69.4631V71.6829H57.212V69.4631H64.5379Z" fill="#034072"/>
<path d="M72.5547 69.4631V83.2163H69.7247V69.4631H72.5547ZM76.795 69.4631V71.6829H65.5506V69.4631H76.795Z" fill="#034072"/>
<path d="M89.4686 76.0185V76.6703C89.4686 77.7156 89.3266 78.6539 89.0426 79.4852C88.7587 80.3164 88.358 81.0248 87.8406 81.6105C87.3232 82.1898 86.7048 82.6338 85.9855 82.9423C85.2724 83.2509 84.4805 83.4052 83.6098 83.4052C82.7453 83.4052 81.9534 83.2509 81.234 82.9423C80.521 82.6338 79.9026 82.1898 79.3789 81.6105C78.8552 81.0248 78.4482 80.3164 78.1579 79.4852C77.874 78.6539 77.732 77.7156 77.732 76.6703V76.0185C77.732 74.9669 77.874 74.0286 78.1579 73.2036C78.4419 72.3724 78.8426 71.664 79.36 71.0783C79.8837 70.4927 80.5021 70.0456 81.2151 69.737C81.9345 69.4284 82.7264 69.2742 83.5908 69.2742C84.4616 69.2742 85.2535 69.4284 85.9665 69.737C86.6859 70.0456 87.3042 70.4927 87.8217 71.0783C88.3454 71.664 88.7492 72.3724 89.0332 73.2036C89.3234 74.0286 89.4686 74.9669 89.4686 76.0185ZM86.6007 76.6703V75.9996C86.6007 75.2691 86.5344 74.6268 86.4019 74.0727C86.2694 73.5185 86.0738 73.0525 85.8151 72.6747C85.5564 72.2968 85.2409 72.0135 84.8686 71.8245C84.4963 71.6293 84.0704 71.5317 83.5908 71.5317C83.1113 71.5317 82.6853 71.6293 82.3131 71.8245C81.9471 72.0135 81.6347 72.2968 81.376 72.6747C81.1236 73.0525 80.9312 73.5185 80.7987 74.0727C80.6662 74.6268 80.5999 75.2691 80.5999 75.9996V76.6703C80.5999 77.3945 80.6662 78.0368 80.7987 78.5972C80.9312 79.1514 81.1268 79.6205 81.3855 80.0047C81.6442 80.3825 81.9597 80.669 82.332 80.8643C82.7043 81.0595 83.1302 81.1571 83.6098 81.1571C84.0893 81.1571 84.5152 81.0595 84.8875 80.8643C85.2598 80.669 85.5722 80.3825 85.8246 80.0047C86.077 79.6205 86.2694 79.1514 86.4019 78.5972C86.5344 78.0368 86.6007 77.3945 86.6007 76.6703Z" fill="#034072"/>
<path d="M91.513 69.4631H96.6525C97.7062 69.4631 98.6117 69.6205 99.3689 69.9354C100.132 70.2502 100.719 70.7162 101.129 71.3334C101.54 71.9505 101.745 72.7093 101.745 73.6098C101.745 74.3466 101.618 74.9795 101.366 75.5084C101.12 76.0311 100.77 76.4688 100.315 76.8214C99.8674 77.1678 99.3405 77.4448 98.7348 77.6527L97.8356 78.1249H93.3681L93.3492 75.9146H96.6714C97.1699 75.9146 97.5832 75.8264 97.9113 75.6501C98.2394 75.4738 98.4855 75.2282 98.6496 74.9133C98.8199 74.5985 98.9051 74.2332 98.9051 73.8176C98.9051 73.3768 98.8231 72.9958 98.659 72.6747C98.495 72.3535 98.2457 72.1079 97.9113 71.9379C97.5769 71.7679 97.1573 71.6829 96.6525 71.6829H94.3525V83.2163H91.513V69.4631ZM99.2175 83.2163L96.0751 77.0859L99.0755 77.067L102.256 83.084V83.2163H99.2175Z" fill="#034072"/>
<path d="M109.534 71.8151L105.786 83.2163H102.767L107.887 69.4631H109.809L109.534 71.8151ZM112.648 83.2163L108.891 71.8151L108.588 69.4631H110.528L115.677 83.2163H112.648ZM112.478 78.0966V80.3164H105.199V78.0966H112.478Z" fill="#034072"/>
</g>
<defs>
<filter id="filter0_d_1_13" x="0" y="0" width="119.677" height="91.4052" filterUnits="userSpaceOnUse" color-interpolation-filters="sRGB">
<feFlood flood-opacity="0" result="BackgroundImageFix"/>
<feColorMatrix in="SourceAlpha" type="matrix" values="0 0 0 0 0 0 0 0 0 0 0 0 0 0 0 0 0 0 127 0" result="hardAlpha"/>
<feOffset dy="4"/>
<feGaussianBlur stdDeviation="2"/>
<feComposite in2="hardAlpha" operator="out"/>
<feColorMatrix type="matrix" values="0 0 0 0 0 0 0 0 0 0 0 0 0 0 0 0 0 0 0.25 0"/>
<feBlend mode="normal" in2="BackgroundImageFix" result="effect1_dropShadow_1_13"/>
<feBlend mode="normal" in="SourceGraphic" in2="effect1_dropShadow_1_13" result="shape"/>
</filter>
</defs>
</svg>
